<mxfile host="www.draw.io" modified="2020-01-09T09:24:53.579Z" agent="Mozilla/5.0 (Windows NT 10.0; Win64; x64) AppleWebKit/537.36 (KHTML, like Gecko) Chrome/77.0.3865.90 Safari/537.36" etag="jU3NNRrFto42-FefO_zh" version="12.5.1" type="github">
  <diagram id="Mt_lALCUaMFA22f0Kt4g" name="第 1 页">
    <mxGraphModel dx="1278" dy="588" grid="1" gridSize="10" guides="1" tooltips="1" connect="1" arrows="1" fold="1" page="1" pageScale="1" pageWidth="827" pageHeight="1169" math="0" shadow="0">
      <root>
        <mxCell id="0"/>
        <mxCell id="1" parent="0"/>
        <mxCell id="-jVNd67lU8PMKVuE0ltb-1" value="" style="shape=ext;double=1;rounded=0;whiteSpace=wrap;html=1;" vertex="1" parent="1">
          <mxGeometry x="220" y="50" width="370" height="80" as="geometry"/>
        </mxCell>
        <mxCell id="-jVNd67lU8PMKVuE0ltb-2" value="&lt;font style=&quot;font-size: 18px&quot;&gt;S3服务器：&lt;/font&gt;&lt;font style=&quot;font-size: 14px&quot;&gt;adminAksk&lt;/font&gt;" style="text;html=1;strokeColor=none;fillColor=none;align=center;verticalAlign=middle;whiteSpace=wrap;rounded=0;" vertex="1" parent="1">
          <mxGeometry x="340" y="90" width="180" height="20" as="geometry"/>
        </mxCell>
        <mxCell id="-jVNd67lU8PMKVuE0ltb-3" value="aksk" style="whiteSpace=wrap;html=1;aspect=fixed;" vertex="1" parent="1">
          <mxGeometry x="130" y="220" width="50" height="50" as="geometry"/>
        </mxCell>
        <mxCell id="-jVNd67lU8PMKVuE0ltb-4" value="aksk" style="whiteSpace=wrap;html=1;aspect=fixed;" vertex="1" parent="1">
          <mxGeometry x="210" y="220" width="50" height="50" as="geometry"/>
        </mxCell>
        <mxCell id="-jVNd67lU8PMKVuE0ltb-5" value="aksk" style="whiteSpace=wrap;html=1;aspect=fixed;" vertex="1" parent="1">
          <mxGeometry x="290" y="220" width="50" height="50" as="geometry"/>
        </mxCell>
        <mxCell id="-jVNd67lU8PMKVuE0ltb-6" value="aksk" style="whiteSpace=wrap;html=1;aspect=fixed;" vertex="1" parent="1">
          <mxGeometry x="370" y="220" width="50" height="50" as="geometry"/>
        </mxCell>
        <mxCell id="-jVNd67lU8PMKVuE0ltb-7" value="aksk" style="whiteSpace=wrap;html=1;aspect=fixed;" vertex="1" parent="1">
          <mxGeometry x="440" y="220" width="50" height="50" as="geometry"/>
        </mxCell>
        <mxCell id="-jVNd67lU8PMKVuE0ltb-8" value="aksk" style="whiteSpace=wrap;html=1;aspect=fixed;" vertex="1" parent="1">
          <mxGeometry x="520" y="220" width="50" height="50" as="geometry"/>
        </mxCell>
        <mxCell id="-jVNd67lU8PMKVuE0ltb-9" value="bucket" style="shape=cylinder;whiteSpace=wrap;html=1;boundedLbl=1;backgroundOutline=1;" vertex="1" parent="1">
          <mxGeometry x="120" y="350" width="40" height="50" as="geometry"/>
        </mxCell>
        <mxCell id="-jVNd67lU8PMKVuE0ltb-11" value="bucket" style="shape=cylinder;whiteSpace=wrap;html=1;boundedLbl=1;backgroundOutline=1;" vertex="1" parent="1">
          <mxGeometry x="170" y="350" width="40" height="50" as="geometry"/>
        </mxCell>
        <mxCell id="-jVNd67lU8PMKVuE0ltb-12" value="bucket" style="shape=cylinder;whiteSpace=wrap;html=1;boundedLbl=1;backgroundOutline=1;" vertex="1" parent="1">
          <mxGeometry x="220" y="350" width="40" height="50" as="geometry"/>
        </mxCell>
        <mxCell id="-jVNd67lU8PMKVuE0ltb-13" value="X1000" style="text;html=1;strokeColor=none;fillColor=none;align=center;verticalAlign=middle;whiteSpace=wrap;rounded=0;" vertex="1" parent="1">
          <mxGeometry x="280" y="365" width="40" height="20" as="geometry"/>
        </mxCell>
        <mxCell id="-jVNd67lU8PMKVuE0ltb-14" value="" style="strokeWidth=2;html=1;shape=mxgraph.flowchart.annotation_2;align=left;labelPosition=right;pointerEvents=1;rotation=90;" vertex="1" parent="1">
          <mxGeometry x="330" y="-40" width="70" height="410" as="geometry"/>
        </mxCell>
        <mxCell id="-jVNd67lU8PMKVuE0ltb-15" value="" style="strokeWidth=2;html=1;shape=mxgraph.flowchart.annotation_2;align=left;labelPosition=right;pointerEvents=1;rotation=90;" vertex="1" parent="1">
          <mxGeometry x="155" y="235" width="70" height="140" as="geometry"/>
        </mxCell>
        <mxCell id="-jVNd67lU8PMKVuE0ltb-16" value="" style="verticalLabelPosition=bottom;html=1;verticalAlign=top;align=center;strokeColor=none;fillColor=#00BEF2;shape=mxgraph.azure.user;" vertex="1" parent="1">
          <mxGeometry x="107.5" y="500" width="47.5" height="50" as="geometry"/>
        </mxCell>
        <mxCell id="-jVNd67lU8PMKVuE0ltb-17" value="" style="rounded=0;comic=1;strokeWidth=2;endArrow=blockThin;html=1;fontFamily=Comic Sans MS;fontStyle=1;entryX=0.5;entryY=1;entryDx=0;entryDy=0;" edge="1" parent="1" target="-jVNd67lU8PMKVuE0ltb-9">
          <mxGeometry width="50" height="50" relative="1" as="geometry">
            <mxPoint x="130" y="490" as="sourcePoint"/>
            <mxPoint x="160" y="430" as="targetPoint"/>
          </mxGeometry>
        </mxCell>
        <mxCell id="-jVNd67lU8PMKVuE0ltb-18" value="" style="rounded=0;comic=1;strokeWidth=2;endArrow=blockThin;html=1;fontFamily=Comic Sans MS;fontStyle=1;entryX=0.5;entryY=1;entryDx=0;entryDy=0;" edge="1" parent="1" target="-jVNd67lU8PMKVuE0ltb-11">
          <mxGeometry width="50" height="50" relative="1" as="geometry">
            <mxPoint x="140" y="500" as="sourcePoint"/>
            <mxPoint x="150" y="410" as="targetPoint"/>
          </mxGeometry>
        </mxCell>
        <mxCell id="-jVNd67lU8PMKVuE0ltb-19" value="" style="verticalLabelPosition=bottom;html=1;verticalAlign=top;align=center;strokeColor=none;fillColor=#00BEF2;shape=mxgraph.azure.user;" vertex="1" parent="1">
          <mxGeometry x="180" y="500" width="47.5" height="50" as="geometry"/>
        </mxCell>
        <mxCell id="-jVNd67lU8PMKVuE0ltb-20" value="" style="rounded=0;comic=1;strokeWidth=2;endArrow=blockThin;html=1;fontFamily=Comic Sans MS;fontStyle=1;entryX=0.5;entryY=1;entryDx=0;entryDy=0;" edge="1" parent="1" source="-jVNd67lU8PMKVuE0ltb-19">
          <mxGeometry width="50" height="50" relative="1" as="geometry">
            <mxPoint x="150" y="510" as="sourcePoint"/>
            <mxPoint x="200" y="410" as="targetPoint"/>
          </mxGeometry>
        </mxCell>
        <mxCell id="-jVNd67lU8PMKVuE0ltb-21" value="复制引用" style="text;html=1;strokeColor=none;fillColor=none;align=center;verticalAlign=middle;whiteSpace=wrap;rounded=0;" vertex="1" parent="1">
          <mxGeometry x="140" y="440" width="60" height="20" as="geometry"/>
        </mxCell>
        <mxCell id="-jVNd67lU8PMKVuE0ltb-23" value="" style="rounded=0;comic=1;strokeWidth=2;endArrow=blockThin;html=1;fontFamily=Comic Sans MS;fontStyle=1;entryX=0.5;entryY=1;entryDx=0;entryDy=0;exitX=0.5;exitY=0;exitDx=0;exitDy=0;exitPerimeter=0;" edge="1" parent="1" source="-jVNd67lU8PMKVuE0ltb-19" target="-jVNd67lU8PMKVuE0ltb-9">
          <mxGeometry width="50" height="50" relative="1" as="geometry">
            <mxPoint x="212.93478260869574" y="510" as="sourcePoint"/>
            <mxPoint x="210" y="420" as="targetPoint"/>
          </mxGeometry>
        </mxCell>
        <mxCell id="-jVNd67lU8PMKVuE0ltb-24" value="bucket" style="shape=cylinder;whiteSpace=wrap;html=1;boundedLbl=1;backgroundOutline=1;" vertex="1" parent="1">
          <mxGeometry x="480" y="350" width="40" height="50" as="geometry"/>
        </mxCell>
        <mxCell id="-jVNd67lU8PMKVuE0ltb-25" value="bucket" style="shape=cylinder;whiteSpace=wrap;html=1;boundedLbl=1;backgroundOutline=1;" vertex="1" parent="1">
          <mxGeometry x="530" y="350" width="40" height="50" as="geometry"/>
        </mxCell>
        <mxCell id="-jVNd67lU8PMKVuE0ltb-26" value="bucket" style="shape=cylinder;whiteSpace=wrap;html=1;boundedLbl=1;backgroundOutline=1;" vertex="1" parent="1">
          <mxGeometry x="580" y="350" width="40" height="50" as="geometry"/>
        </mxCell>
        <mxCell id="-jVNd67lU8PMKVuE0ltb-27" value="X1000" style="text;html=1;strokeColor=none;fillColor=none;align=center;verticalAlign=middle;whiteSpace=wrap;rounded=0;" vertex="1" parent="1">
          <mxGeometry x="640" y="365" width="40" height="20" as="geometry"/>
        </mxCell>
        <mxCell id="-jVNd67lU8PMKVuE0ltb-28" value="" style="strokeWidth=2;html=1;shape=mxgraph.flowchart.annotation_2;align=left;labelPosition=right;pointerEvents=1;rotation=90;" vertex="1" parent="1">
          <mxGeometry x="515" y="235" width="70" height="140" as="geometry"/>
        </mxCell>
        <mxCell id="-jVNd67lU8PMKVuE0ltb-29" value="" style="verticalLabelPosition=bottom;html=1;verticalAlign=top;align=center;strokeColor=none;fillColor=#00BEF2;shape=mxgraph.azure.user;" vertex="1" parent="1">
          <mxGeometry x="476.25" y="500" width="47.5" height="50" as="geometry"/>
        </mxCell>
        <mxCell id="-jVNd67lU8PMKVuE0ltb-30" value="" style="rounded=0;comic=1;strokeWidth=2;endArrow=blockThin;html=1;fontFamily=Comic Sans MS;fontStyle=1;entryX=0.5;entryY=1;entryDx=0;entryDy=0;exitX=0.5;exitY=0;exitDx=0;exitDy=0;exitPerimeter=0;" edge="1" parent="1" source="-jVNd67lU8PMKVuE0ltb-29" target="-jVNd67lU8PMKVuE0ltb-24">
          <mxGeometry width="50" height="50" relative="1" as="geometry">
            <mxPoint x="212.93478260869574" y="510" as="sourcePoint"/>
            <mxPoint x="210" y="420" as="targetPoint"/>
          </mxGeometry>
        </mxCell>
        <mxCell id="-jVNd67lU8PMKVuE0ltb-31" value="" style="rounded=0;comic=1;strokeWidth=2;endArrow=blockThin;html=1;fontFamily=Comic Sans MS;fontStyle=1;entryX=0.5;entryY=1;entryDx=0;entryDy=0;exitX=0.5;exitY=0;exitDx=0;exitDy=0;exitPerimeter=0;" edge="1" parent="1" source="-jVNd67lU8PMKVuE0ltb-19" target="-jVNd67lU8PMKVuE0ltb-24">
          <mxGeometry width="50" height="50" relative="1" as="geometry">
            <mxPoint x="510" y="510" as="sourcePoint"/>
            <mxPoint x="510" y="410" as="targetPoint"/>
          </mxGeometry>
        </mxCell>
        <mxCell id="-jVNd67lU8PMKVuE0ltb-32" value="复制引用" style="text;html=1;strokeColor=none;fillColor=none;align=center;verticalAlign=middle;whiteSpace=wrap;rounded=0;" vertex="1" parent="1">
          <mxGeometry x="320" y="440" width="60" height="20" as="geometry"/>
        </mxCell>
        <mxCell id="-jVNd67lU8PMKVuE0ltb-33" value="" style="verticalLabelPosition=bottom;html=1;verticalAlign=top;align=center;strokeColor=none;fillColor=#00BEF2;shape=mxgraph.azure.user;" vertex="1" parent="1">
          <mxGeometry x="526.25" y="500" width="47.5" height="50" as="geometry"/>
        </mxCell>
        <mxCell id="-jVNd67lU8PMKVuE0ltb-34" value="" style="verticalLabelPosition=bottom;html=1;verticalAlign=top;align=center;strokeColor=none;fillColor=#00BEF2;shape=mxgraph.azure.user;" vertex="1" parent="1">
          <mxGeometry x="580" y="500" width="47.5" height="50" as="geometry"/>
        </mxCell>
        <mxCell id="-jVNd67lU8PMKVuE0ltb-35" value="" style="rounded=0;comic=1;strokeWidth=2;endArrow=blockThin;html=1;fontFamily=Comic Sans MS;fontStyle=1;entryX=0.5;entryY=1;entryDx=0;entryDy=0;exitX=0.5;exitY=0;exitDx=0;exitDy=0;exitPerimeter=0;" edge="1" parent="1" source="-jVNd67lU8PMKVuE0ltb-33" target="-jVNd67lU8PMKVuE0ltb-25">
          <mxGeometry width="50" height="50" relative="1" as="geometry">
            <mxPoint x="510" y="510" as="sourcePoint"/>
            <mxPoint x="510" y="410" as="targetPoint"/>
            <Array as="points"/>
          </mxGeometry>
        </mxCell>
        <mxCell id="-jVNd67lU8PMKVuE0ltb-36" value="" style="rounded=0;comic=1;strokeWidth=2;endArrow=blockThin;html=1;fontFamily=Comic Sans MS;fontStyle=1;entryX=0.5;entryY=1;entryDx=0;entryDy=0;" edge="1" parent="1" source="-jVNd67lU8PMKVuE0ltb-34" target="-jVNd67lU8PMKVuE0ltb-26">
          <mxGeometry width="50" height="50" relative="1" as="geometry">
            <mxPoint x="560" y="510" as="sourcePoint"/>
            <mxPoint x="560" y="410" as="targetPoint"/>
            <Array as="points"/>
          </mxGeometry>
        </mxCell>
      </root>
    </mxGraphModel>
  </diagram>
</mxfile>
